<mxfile host="app.diagrams.net" modified="2021-07-01T17:12:10.969Z" agent="5.0 (Macintosh; Intel Mac OS X 10_15_7) AppleWebKit/605.1.15 (KHTML, like Gecko) Version/14.1.1 Safari/605.1.15" etag="86evioP5lMmmNh1Jb3QN" version="14.8.1" type="github">
  <diagram id="T8AiIGiLoeS_pBccrSCJ" name="Page-1">
    <mxGraphModel dx="1161" dy="661" grid="1" gridSize="10" guides="1" tooltips="1" connect="1" arrows="1" fold="1" page="1" pageScale="1" pageWidth="827" pageHeight="1169" math="0" shadow="0">
      <root>
        <mxCell id="0" />
        <mxCell id="1" parent="0" />
        <mxCell id="kyES9LxYlZeH5sA6S6n9-1" value="Tracks" style="rounded=0;whiteSpace=wrap;html=1;fillColor=#21C0A5;strokeColor=#006658;fontColor=#5C5C5C;" vertex="1" parent="1">
          <mxGeometry x="682" y="370" width="140" height="70" as="geometry" />
        </mxCell>
        <mxCell id="kyES9LxYlZeH5sA6S6n9-2" value="Albums" style="rounded=0;whiteSpace=wrap;html=1;fillColor=#21C0A5;strokeColor=#006658;fontColor=#5C5C5C;" vertex="1" parent="1">
          <mxGeometry x="325" y="370" width="140" height="70" as="geometry" />
        </mxCell>
        <mxCell id="kyES9LxYlZeH5sA6S6n9-3" value="Artist" style="rounded=0;whiteSpace=wrap;html=1;fillColor=#21C0A5;strokeColor=#006658;fontColor=#5C5C5C;" vertex="1" parent="1">
          <mxGeometry x="5" y="370" width="140" height="70" as="geometry" />
        </mxCell>
        <mxCell id="kyES9LxYlZeH5sA6S6n9-4" value="Contains" style="rhombus;whiteSpace=wrap;html=1;rounded=0;fillColor=#21C0A5;strokeColor=#006658;fontColor=#5C5C5C;" vertex="1" parent="1">
          <mxGeometry x="545" y="365" width="80" height="80" as="geometry" />
        </mxCell>
        <mxCell id="kyES9LxYlZeH5sA6S6n9-8" value="Compile" style="rhombus;whiteSpace=wrap;html=1;rounded=0;fillColor=#21C0A5;strokeColor=#006658;fontColor=#5C5C5C;" vertex="1" parent="1">
          <mxGeometry x="205" y="365" width="80" height="80" as="geometry" />
        </mxCell>
        <mxCell id="kyES9LxYlZeH5sA6S6n9-11" value="&lt;u&gt;ar_id&lt;/u&gt;" style="ellipse;whiteSpace=wrap;html=1;fillColor=#21C0A5;strokeColor=#006658;fontColor=#5C5C5C;" vertex="1" parent="1">
          <mxGeometry x="5" y="480" width="70" height="40" as="geometry" />
        </mxCell>
        <mxCell id="kyES9LxYlZeH5sA6S6n9-12" value="first_name" style="ellipse;whiteSpace=wrap;html=1;fillColor=#21C0A5;strokeColor=#006658;fontColor=#5C5C5C;" vertex="1" parent="1">
          <mxGeometry y="290" width="70" height="40" as="geometry" />
        </mxCell>
        <mxCell id="kyES9LxYlZeH5sA6S6n9-13" value="last _name" style="ellipse;whiteSpace=wrap;html=1;fillColor=#21C0A5;strokeColor=#006658;fontColor=#5C5C5C;" vertex="1" parent="1">
          <mxGeometry x="75" y="290" width="70" height="40" as="geometry" />
        </mxCell>
        <mxCell id="kyES9LxYlZeH5sA6S6n9-17" value="&lt;u&gt;al_id&lt;span style=&quot;color: rgba(0 , 0 , 0 , 0) ; font-family: monospace ; font-size: 0px&quot;&gt;%3CmxGraphModel%3E%3Croot%3E%3CmxCell%20id%3D%220%22%2F%3E%3CmxCell%20id%3D%221%22%20parent%3D%220%22%2F%3E%3CmxCell%20id%3D%222%22%20value%3D%22ar_id%22%20style%3D%22ellipse%3BwhiteSpace%3Dwrap%3Bhtml%3D1%3B%22%20vertex%3D%221%22%20parent%3D%221%22%3E%3CmxGeometry%20x%3D%2210%22%20y%3D%22210%22%20width%3D%2270%22%20height%3D%2240%22%20as%3D%22geometry%22%2F%3E%3C%2FmxCell%3E%3C%2Froot%3E%3C%2FmxGraphModel%3E&lt;/span&gt;&lt;/u&gt;" style="ellipse;whiteSpace=wrap;html=1;fillColor=#21C0A5;strokeColor=#006658;fontColor=#5C5C5C;" vertex="1" parent="1">
          <mxGeometry x="315" y="480" width="70" height="40" as="geometry" />
        </mxCell>
        <mxCell id="kyES9LxYlZeH5sA6S6n9-18" value="al_name" style="ellipse;whiteSpace=wrap;html=1;fillColor=#21C0A5;strokeColor=#006658;fontColor=#5C5C5C;" vertex="1" parent="1">
          <mxGeometry x="405" y="480" width="70" height="40" as="geometry" />
        </mxCell>
        <mxCell id="kyES9LxYlZeH5sA6S6n9-19" value="al_date&lt;span style=&quot;color: rgba(0 , 0 , 0 , 0) ; font-family: monospace ; font-size: 0px&quot;&gt;%3CmxGraphModel%3E%3Croot%3E%3CmxCell%20id%3D%220%22%2F%3E%3CmxCell%20id%3D%221%22%20parent%3D%220%22%2F%3E%3CmxCell%20id%3D%222%22%20value%3D%22ar_id%22%20style%3D%22ellipse%3BwhiteSpace%3Dwrap%3Bhtml%3D1%3B%22%20vertex%3D%221%22%20parent%3D%221%22%3E%3CmxGeometry%20x%3D%2210%22%20y%3D%22210%22%20width%3D%2270%22%20height%3D%2240%22%20as%3D%22geometry%22%2F%3E%3C%2FmxCell%3E%3C%2Froot%3E%3C%2FmxGraphModel%3E&lt;/span&gt;" style="ellipse;whiteSpace=wrap;html=1;fillColor=#21C0A5;strokeColor=#006658;fontColor=#5C5C5C;" vertex="1" parent="1">
          <mxGeometry x="315" y="290" width="70" height="40" as="geometry" />
        </mxCell>
        <mxCell id="kyES9LxYlZeH5sA6S6n9-20" value="al_ganre&lt;span style=&quot;color: rgba(0 , 0 , 0 , 0) ; font-family: monospace ; font-size: 0px&quot;&gt;%3CmxGraphModel%3E%3Croot%3E%3CmxCell%20id%3D%220%22%2F%3E%3CmxCell%20id%3D%221%22%20parent%3D%220%22%2F%3E%3CmxCell%20id%3D%222%22%20value%3D%22ar_id%22%20style%3D%22ellipse%3BwhiteSpace%3Dwrap%3Bhtml%3D1%3B%22%20vertex%3D%221%22%20parent%3D%221%22%3E%3CmxGeometry%20x%3D%2210%22%20y%3D%22210%22%20width%3D%2270%22%20height%3D%2240%22%20as%3D%22geometry%22%2F%3E%3C%2FmxCell%3E%3C%2Froot%3E%3C%2FmxGraphModel%3E&lt;/span&gt;" style="ellipse;whiteSpace=wrap;html=1;fillColor=#21C0A5;strokeColor=#006658;fontColor=#5C5C5C;" vertex="1" parent="1">
          <mxGeometry x="405" y="290" width="70" height="40" as="geometry" />
        </mxCell>
        <mxCell id="kyES9LxYlZeH5sA6S6n9-26" value="&lt;u&gt;tr_id&lt;/u&gt;" style="ellipse;whiteSpace=wrap;html=1;fillColor=#21C0A5;strokeColor=#006658;fontColor=#5C5C5C;" vertex="1" parent="1">
          <mxGeometry x="752" y="300" width="70" height="40" as="geometry" />
        </mxCell>
        <mxCell id="kyES9LxYlZeH5sA6S6n9-28" value="tr_date_of&lt;br&gt;_release" style="ellipse;whiteSpace=wrap;html=1;fillColor=#21C0A5;strokeColor=#006658;fontColor=#5C5C5C;" vertex="1" parent="1">
          <mxGeometry x="603.5" y="460" width="70" height="40" as="geometry" />
        </mxCell>
        <mxCell id="kyES9LxYlZeH5sA6S6n9-30" value="tr_name" style="ellipse;whiteSpace=wrap;html=1;fillColor=#21C0A5;strokeColor=#006658;fontColor=#5C5C5C;" vertex="1" parent="1">
          <mxGeometry x="673.5" y="480" width="70" height="40" as="geometry" />
        </mxCell>
        <mxCell id="kyES9LxYlZeH5sA6S6n9-32" value="tr_number" style="ellipse;whiteSpace=wrap;html=1;fillColor=#21C0A5;strokeColor=#006658;fontColor=#5C5C5C;" vertex="1" parent="1">
          <mxGeometry x="749" y="480" width="73" height="40" as="geometry" />
        </mxCell>
        <mxCell id="kyES9LxYlZeH5sA6S6n9-34" value="tr_duration" style="ellipse;whiteSpace=wrap;html=1;fillColor=#21C0A5;strokeColor=#006658;fontColor=#5C5C5C;" vertex="1" parent="1">
          <mxGeometry x="665" y="300" width="73" height="40" as="geometry" />
        </mxCell>
        <mxCell id="kyES9LxYlZeH5sA6S6n9-38" value="" style="endArrow=none;html=1;exitX=0.75;exitY=0;exitDx=0;exitDy=0;entryX=0.5;entryY=1;entryDx=0;entryDy=0;strokeColor=#006658;fontColor=#5C5C5C;" edge="1" parent="1" source="kyES9LxYlZeH5sA6S6n9-3" target="kyES9LxYlZeH5sA6S6n9-13">
          <mxGeometry width="50" height="50" relative="1" as="geometry">
            <mxPoint x="75" y="370" as="sourcePoint" />
            <mxPoint x="125" y="320" as="targetPoint" />
          </mxGeometry>
        </mxCell>
        <mxCell id="kyES9LxYlZeH5sA6S6n9-39" value="" style="endArrow=none;html=1;exitX=0.75;exitY=0;exitDx=0;exitDy=0;entryX=0.5;entryY=1;entryDx=0;entryDy=0;strokeColor=#006658;fontColor=#5C5C5C;" edge="1" parent="1">
          <mxGeometry width="50" height="50" relative="1" as="geometry">
            <mxPoint x="29.5" y="370" as="sourcePoint" />
            <mxPoint x="29.5" y="330" as="targetPoint" />
            <Array as="points" />
          </mxGeometry>
        </mxCell>
        <mxCell id="kyES9LxYlZeH5sA6S6n9-40" value="" style="endArrow=none;html=1;exitX=0.75;exitY=0;exitDx=0;exitDy=0;entryX=0.5;entryY=1;entryDx=0;entryDy=0;strokeColor=#006658;fontColor=#5C5C5C;" edge="1" parent="1">
          <mxGeometry width="50" height="50" relative="1" as="geometry">
            <mxPoint x="39.5" y="480" as="sourcePoint" />
            <mxPoint x="39.5" y="440" as="targetPoint" />
          </mxGeometry>
        </mxCell>
        <mxCell id="kyES9LxYlZeH5sA6S6n9-41" value="" style="endArrow=none;html=1;exitX=0.75;exitY=0;exitDx=0;exitDy=0;entryX=0.5;entryY=1;entryDx=0;entryDy=0;strokeColor=#006658;fontColor=#5C5C5C;" edge="1" parent="1">
          <mxGeometry width="50" height="50" relative="1" as="geometry">
            <mxPoint x="349.5" y="370" as="sourcePoint" />
            <mxPoint x="349.5" y="330" as="targetPoint" />
          </mxGeometry>
        </mxCell>
        <mxCell id="kyES9LxYlZeH5sA6S6n9-42" value="" style="endArrow=none;html=1;exitX=0.75;exitY=0;exitDx=0;exitDy=0;entryX=0.5;entryY=1;entryDx=0;entryDy=0;strokeColor=#006658;fontColor=#5C5C5C;" edge="1" parent="1">
          <mxGeometry width="50" height="50" relative="1" as="geometry">
            <mxPoint x="439.5" y="480" as="sourcePoint" />
            <mxPoint x="439.5" y="440" as="targetPoint" />
          </mxGeometry>
        </mxCell>
        <mxCell id="kyES9LxYlZeH5sA6S6n9-43" value="" style="endArrow=none;html=1;exitX=0.75;exitY=0;exitDx=0;exitDy=0;entryX=0.5;entryY=1;entryDx=0;entryDy=0;strokeColor=#006658;fontColor=#5C5C5C;" edge="1" parent="1">
          <mxGeometry width="50" height="50" relative="1" as="geometry">
            <mxPoint x="439.5" y="370" as="sourcePoint" />
            <mxPoint x="439.5" y="330" as="targetPoint" />
          </mxGeometry>
        </mxCell>
        <mxCell id="kyES9LxYlZeH5sA6S6n9-44" value="" style="endArrow=none;html=1;exitX=0.75;exitY=0;exitDx=0;exitDy=0;entryX=0.5;entryY=1;entryDx=0;entryDy=0;strokeColor=#006658;fontColor=#5C5C5C;" edge="1" parent="1">
          <mxGeometry width="50" height="50" relative="1" as="geometry">
            <mxPoint x="349.5" y="480" as="sourcePoint" />
            <mxPoint x="349.5" y="440" as="targetPoint" />
            <Array as="points">
              <mxPoint x="349.5" y="460" />
            </Array>
          </mxGeometry>
        </mxCell>
        <mxCell id="kyES9LxYlZeH5sA6S6n9-46" value="" style="endArrow=none;html=1;exitX=0.75;exitY=0;exitDx=0;exitDy=0;entryX=0.5;entryY=1;entryDx=0;entryDy=0;strokeColor=#006658;fontColor=#5C5C5C;" edge="1" parent="1">
          <mxGeometry width="50" height="50" relative="1" as="geometry">
            <mxPoint x="708" y="480" as="sourcePoint" />
            <mxPoint x="708" y="440" as="targetPoint" />
            <Array as="points">
              <mxPoint x="708" y="470" />
            </Array>
          </mxGeometry>
        </mxCell>
        <mxCell id="kyES9LxYlZeH5sA6S6n9-48" value="" style="endArrow=none;html=1;exitX=0.75;exitY=0;exitDx=0;exitDy=0;entryX=0.5;entryY=1;entryDx=0;entryDy=0;strokeColor=#006658;fontColor=#5C5C5C;" edge="1" parent="1" target="kyES9LxYlZeH5sA6S6n9-26">
          <mxGeometry width="50" height="50" relative="1" as="geometry">
            <mxPoint x="786.5" y="370" as="sourcePoint" />
            <mxPoint x="795" y="320" as="targetPoint" />
            <Array as="points">
              <mxPoint x="786.5" y="360" />
            </Array>
          </mxGeometry>
        </mxCell>
        <mxCell id="kyES9LxYlZeH5sA6S6n9-49" value="" style="endArrow=none;html=1;entryX=0.5;entryY=1;entryDx=0;entryDy=0;strokeColor=#006658;fontColor=#5C5C5C;" edge="1" parent="1">
          <mxGeometry width="50" height="50" relative="1" as="geometry">
            <mxPoint x="701" y="370" as="sourcePoint" />
            <mxPoint x="701" y="340" as="targetPoint" />
            <Array as="points">
              <mxPoint x="701" y="370" />
            </Array>
          </mxGeometry>
        </mxCell>
        <mxCell id="kyES9LxYlZeH5sA6S6n9-50" value="" style="endArrow=none;html=1;exitX=0.75;exitY=0;exitDx=0;exitDy=0;entryX=0.5;entryY=1;entryDx=0;entryDy=0;strokeColor=#006658;fontColor=#5C5C5C;" edge="1" parent="1">
          <mxGeometry width="50" height="50" relative="1" as="geometry">
            <mxPoint x="786.5" y="480" as="sourcePoint" />
            <mxPoint x="786.5" y="440" as="targetPoint" />
            <Array as="points">
              <mxPoint x="786.5" y="470" />
            </Array>
          </mxGeometry>
        </mxCell>
        <mxCell id="kyES9LxYlZeH5sA6S6n9-51" value="" style="endArrow=none;html=1;entryX=0.007;entryY=0.671;entryDx=0;entryDy=0;targetPerimeterSpacing=0;edgeStyle=orthogonalEdgeStyle;entryPerimeter=0;strokeColor=#006658;fontColor=#5C5C5C;" edge="1" parent="1" source="kyES9LxYlZeH5sA6S6n9-28" target="kyES9LxYlZeH5sA6S6n9-1">
          <mxGeometry width="50" height="50" relative="1" as="geometry">
            <mxPoint x="665" y="460" as="sourcePoint" />
            <mxPoint x="665" y="420" as="targetPoint" />
          </mxGeometry>
        </mxCell>
        <mxCell id="kyES9LxYlZeH5sA6S6n9-53" value="Login" style="rounded=0;whiteSpace=wrap;html=1;fillColor=#21C0A5;strokeColor=#006658;fontColor=#5C5C5C;" vertex="1" parent="1">
          <mxGeometry x="180" y="80" width="120" height="60" as="geometry" />
        </mxCell>
        <mxCell id="kyES9LxYlZeH5sA6S6n9-54" value="User" style="rounded=0;whiteSpace=wrap;html=1;fillColor=#21C0A5;strokeColor=#006658;fontColor=#5C5C5C;" vertex="1" parent="1">
          <mxGeometry x="525" y="80" width="120" height="60" as="geometry" />
        </mxCell>
        <mxCell id="kyES9LxYlZeH5sA6S6n9-55" value="&lt;u&gt;login_id&lt;/u&gt;" style="ellipse;whiteSpace=wrap;html=1;fillColor=#21C0A5;strokeColor=#006658;fontColor=#5C5C5C;" vertex="1" parent="1">
          <mxGeometry x="180" y="10" width="60" height="40" as="geometry" />
        </mxCell>
        <mxCell id="kyES9LxYlZeH5sA6S6n9-61" value="" style="endArrow=none;html=1;fontColor=#5C5C5C;strokeColor=#006658;fillColor=#21C0A5;exitX=0.25;exitY=0;exitDx=0;exitDy=0;" edge="1" parent="1" source="kyES9LxYlZeH5sA6S6n9-53">
          <mxGeometry width="50" height="50" relative="1" as="geometry">
            <mxPoint x="210" y="70" as="sourcePoint" />
            <mxPoint x="210" y="50" as="targetPoint" />
          </mxGeometry>
        </mxCell>
        <mxCell id="kyES9LxYlZeH5sA6S6n9-62" value="l_username" style="ellipse;whiteSpace=wrap;html=1;fillColor=#21C0A5;strokeColor=#006658;fontColor=#5C5C5C;" vertex="1" parent="1">
          <mxGeometry x="250" y="10" width="70" height="40" as="geometry" />
        </mxCell>
        <mxCell id="kyES9LxYlZeH5sA6S6n9-63" value="" style="endArrow=none;html=1;fontColor=#5C5C5C;strokeColor=#006658;fillColor=#21C0A5;exitX=0.25;exitY=0;exitDx=0;exitDy=0;" edge="1" parent="1">
          <mxGeometry width="50" height="50" relative="1" as="geometry">
            <mxPoint x="280" y="80" as="sourcePoint" />
            <mxPoint x="280" y="50" as="targetPoint" />
            <Array as="points">
              <mxPoint x="280" y="60" />
            </Array>
          </mxGeometry>
        </mxCell>
        <mxCell id="kyES9LxYlZeH5sA6S6n9-64" value="l_password" style="ellipse;whiteSpace=wrap;html=1;fillColor=#21C0A5;strokeColor=#006658;fontColor=#5C5C5C;" vertex="1" parent="1">
          <mxGeometry x="175" y="170" width="70" height="40" as="geometry" />
        </mxCell>
        <mxCell id="kyES9LxYlZeH5sA6S6n9-65" value="" style="endArrow=none;html=1;fontColor=#5C5C5C;strokeColor=#006658;fillColor=#21C0A5;exitX=0.25;exitY=0;exitDx=0;exitDy=0;" edge="1" parent="1">
          <mxGeometry width="50" height="50" relative="1" as="geometry">
            <mxPoint x="209.5" y="170" as="sourcePoint" />
            <mxPoint x="209.5" y="140" as="targetPoint" />
            <Array as="points">
              <mxPoint x="209.5" y="150" />
            </Array>
          </mxGeometry>
        </mxCell>
        <mxCell id="kyES9LxYlZeH5sA6S6n9-66" value="&lt;u&gt;user_id&lt;/u&gt;" style="ellipse;whiteSpace=wrap;html=1;fillColor=#21C0A5;strokeColor=#006658;fontColor=#5C5C5C;" vertex="1" parent="1">
          <mxGeometry x="525" y="10" width="60" height="40" as="geometry" />
        </mxCell>
        <mxCell id="kyES9LxYlZeH5sA6S6n9-67" value="user-name" style="ellipse;whiteSpace=wrap;html=1;fillColor=#21C0A5;strokeColor=#006658;fontColor=#5C5C5C;" vertex="1" parent="1">
          <mxGeometry x="600" y="10" width="60" height="40" as="geometry" />
        </mxCell>
        <mxCell id="kyES9LxYlZeH5sA6S6n9-68" value="user_tell" style="ellipse;whiteSpace=wrap;html=1;fillColor=#21C0A5;strokeColor=#006658;fontColor=#5C5C5C;" vertex="1" parent="1">
          <mxGeometry x="600" y="170" width="60" height="40" as="geometry" />
        </mxCell>
        <mxCell id="kyES9LxYlZeH5sA6S6n9-69" value="user_email" style="ellipse;whiteSpace=wrap;html=1;fillColor=#21C0A5;strokeColor=#006658;fontColor=#5C5C5C;" vertex="1" parent="1">
          <mxGeometry x="678.5" y="90" width="60" height="40" as="geometry" />
        </mxCell>
        <mxCell id="kyES9LxYlZeH5sA6S6n9-70" value="" style="endArrow=none;html=1;fontColor=#5C5C5C;strokeColor=#006658;fillColor=#21C0A5;exitX=0.25;exitY=0;exitDx=0;exitDy=0;" edge="1" parent="1">
          <mxGeometry width="50" height="50" relative="1" as="geometry">
            <mxPoint x="554.5" y="80" as="sourcePoint" />
            <mxPoint x="554.5" y="50" as="targetPoint" />
            <Array as="points">
              <mxPoint x="554.5" y="60" />
            </Array>
          </mxGeometry>
        </mxCell>
        <mxCell id="kyES9LxYlZeH5sA6S6n9-71" value="" style="endArrow=none;html=1;fontColor=#5C5C5C;strokeColor=#006658;fillColor=#21C0A5;exitX=0.25;exitY=0;exitDx=0;exitDy=0;" edge="1" parent="1">
          <mxGeometry width="50" height="50" relative="1" as="geometry">
            <mxPoint x="629.5" y="80" as="sourcePoint" />
            <mxPoint x="629.5" y="50" as="targetPoint" />
            <Array as="points">
              <mxPoint x="629.5" y="60" />
            </Array>
          </mxGeometry>
        </mxCell>
        <mxCell id="kyES9LxYlZeH5sA6S6n9-72" value="" style="endArrow=none;html=1;fontColor=#5C5C5C;strokeColor=#006658;fillColor=#21C0A5;" edge="1" parent="1" target="kyES9LxYlZeH5sA6S6n9-69">
          <mxGeometry width="50" height="50" relative="1" as="geometry">
            <mxPoint x="645" y="112" as="sourcePoint" />
            <mxPoint x="665" y="110" as="targetPoint" />
            <Array as="points" />
          </mxGeometry>
        </mxCell>
        <mxCell id="kyES9LxYlZeH5sA6S6n9-74" value="" style="endArrow=none;html=1;fontColor=#5C5C5C;strokeColor=#006658;fillColor=#21C0A5;exitX=0.25;exitY=0;exitDx=0;exitDy=0;" edge="1" parent="1">
          <mxGeometry width="50" height="50" relative="1" as="geometry">
            <mxPoint x="629.5" y="170" as="sourcePoint" />
            <mxPoint x="629.5" y="140" as="targetPoint" />
            <Array as="points">
              <mxPoint x="629.5" y="150" />
            </Array>
          </mxGeometry>
        </mxCell>
        <mxCell id="kyES9LxYlZeH5sA6S6n9-75" value="has" style="rhombus;whiteSpace=wrap;html=1;rounded=0;sketch=0;fontColor=#5C5C5C;strokeColor=#006658;fillColor=#21C0A5;" vertex="1" parent="1">
          <mxGeometry x="374" y="70" width="80" height="80" as="geometry" />
        </mxCell>
        <mxCell id="kyES9LxYlZeH5sA6S6n9-78" value="Manage" style="rhombus;whiteSpace=wrap;html=1;rounded=0;sketch=0;fontColor=#5C5C5C;strokeColor=#006658;fillColor=#21C0A5;" vertex="1" parent="1">
          <mxGeometry x="360" y="190" width="80" height="80" as="geometry" />
        </mxCell>
        <mxCell id="kyES9LxYlZeH5sA6S6n9-79" value="" style="endArrow=none;html=1;fontColor=#5C5C5C;strokeColor=#006658;fillColor=#21C0A5;entryX=0;entryY=0.75;entryDx=0;entryDy=0;exitX=0.5;exitY=0;exitDx=0;exitDy=0;" edge="1" parent="1" source="kyES9LxYlZeH5sA6S6n9-78" target="kyES9LxYlZeH5sA6S6n9-54">
          <mxGeometry width="50" height="50" relative="1" as="geometry">
            <mxPoint x="415" y="190" as="sourcePoint" />
            <mxPoint x="520" y="120" as="targetPoint" />
            <Array as="points" />
          </mxGeometry>
        </mxCell>
        <mxCell id="kyES9LxYlZeH5sA6S6n9-80" value="" style="endArrow=none;html=1;fontColor=#5C5C5C;strokeColor=#006658;fillColor=#21C0A5;exitX=1;exitY=0;exitDx=0;exitDy=0;entryX=0;entryY=0.5;entryDx=0;entryDy=0;" edge="1" parent="1" source="kyES9LxYlZeH5sA6S6n9-3" target="kyES9LxYlZeH5sA6S6n9-78">
          <mxGeometry width="50" height="50" relative="1" as="geometry">
            <mxPoint x="324" y="280" as="sourcePoint" />
            <mxPoint x="374" y="230" as="targetPoint" />
          </mxGeometry>
        </mxCell>
        <mxCell id="kyES9LxYlZeH5sA6S6n9-83" value="" style="endArrow=none;html=1;fontColor=#5C5C5C;strokeColor=#006658;fillColor=#21C0A5;entryX=0;entryY=0;entryDx=0;entryDy=0;exitX=1;exitY=0.5;exitDx=0;exitDy=0;" edge="1" parent="1" source="kyES9LxYlZeH5sA6S6n9-78" target="kyES9LxYlZeH5sA6S6n9-1">
          <mxGeometry width="50" height="50" relative="1" as="geometry">
            <mxPoint x="454" y="230" as="sourcePoint" />
            <mxPoint x="504" y="180" as="targetPoint" />
          </mxGeometry>
        </mxCell>
        <mxCell id="kyES9LxYlZeH5sA6S6n9-84" value="" style="endArrow=none;html=1;fontColor=#5C5C5C;strokeColor=#006658;fillColor=#21C0A5;exitX=0.5;exitY=0;exitDx=0;exitDy=0;entryX=0.5;entryY=1;entryDx=0;entryDy=0;" edge="1" parent="1" source="kyES9LxYlZeH5sA6S6n9-2" target="kyES9LxYlZeH5sA6S6n9-78">
          <mxGeometry width="50" height="50" relative="1" as="geometry">
            <mxPoint x="364" y="320" as="sourcePoint" />
            <mxPoint x="414" y="270" as="targetPoint" />
            <Array as="points" />
          </mxGeometry>
        </mxCell>
        <mxCell id="kyES9LxYlZeH5sA6S6n9-86" value="" style="endArrow=none;html=1;fontColor=#5C5C5C;strokeColor=#006658;fillColor=#21C0A5;entryX=0;entryY=0.5;entryDx=0;entryDy=0;" edge="1" parent="1" target="kyES9LxYlZeH5sA6S6n9-75">
          <mxGeometry width="50" height="50" relative="1" as="geometry">
            <mxPoint x="300" y="110" as="sourcePoint" />
            <mxPoint x="370" y="110" as="targetPoint" />
          </mxGeometry>
        </mxCell>
        <mxCell id="kyES9LxYlZeH5sA6S6n9-87" value="" style="endArrow=none;html=1;fontColor=#5C5C5C;strokeColor=#006658;fillColor=#21C0A5;entryX=0;entryY=0.5;entryDx=0;entryDy=0;" edge="1" parent="1" target="kyES9LxYlZeH5sA6S6n9-54">
          <mxGeometry width="50" height="50" relative="1" as="geometry">
            <mxPoint x="454" y="110" as="sourcePoint" />
            <mxPoint x="504" y="60" as="targetPoint" />
          </mxGeometry>
        </mxCell>
        <mxCell id="kyES9LxYlZeH5sA6S6n9-90" value="1" style="text;html=1;align=center;verticalAlign=middle;resizable=0;points=[];autosize=1;strokeColor=none;fontColor=#5C5C5C;" vertex="1" parent="1">
          <mxGeometry x="300" y="90" width="20" height="20" as="geometry" />
        </mxCell>
        <mxCell id="kyES9LxYlZeH5sA6S6n9-92" value="1" style="text;html=1;align=center;verticalAlign=middle;resizable=0;points=[];autosize=1;strokeColor=none;fontColor=#5C5C5C;" vertex="1" parent="1">
          <mxGeometry x="510" y="80" width="20" height="20" as="geometry" />
        </mxCell>
        <mxCell id="kyES9LxYlZeH5sA6S6n9-93" value="n" style="text;html=1;align=center;verticalAlign=middle;resizable=0;points=[];autosize=1;strokeColor=none;fontColor=#5C5C5C;" vertex="1" parent="1">
          <mxGeometry x="510" y="140" width="20" height="20" as="geometry" />
        </mxCell>
        <mxCell id="kyES9LxYlZeH5sA6S6n9-95" value="m" style="text;html=1;align=center;verticalAlign=middle;resizable=0;points=[];autosize=1;strokeColor=none;fontColor=#5C5C5C;" vertex="1" parent="1">
          <mxGeometry x="660" y="380" width="30" height="20" as="geometry" />
        </mxCell>
        <mxCell id="kyES9LxYlZeH5sA6S6n9-97" value="m" style="text;html=1;align=center;verticalAlign=middle;resizable=0;points=[];autosize=1;strokeColor=none;fontColor=#5C5C5C;" vertex="1" parent="1">
          <mxGeometry x="385" y="350" width="30" height="20" as="geometry" />
        </mxCell>
        <mxCell id="kyES9LxYlZeH5sA6S6n9-99" value="m" style="text;html=1;align=center;verticalAlign=middle;resizable=0;points=[];autosize=1;strokeColor=none;fontColor=#5C5C5C;" vertex="1" parent="1">
          <mxGeometry x="125" y="350" width="30" height="20" as="geometry" />
        </mxCell>
        <mxCell id="kyES9LxYlZeH5sA6S6n9-101" value="m" style="text;html=1;align=center;verticalAlign=middle;resizable=0;points=[];autosize=1;strokeColor=none;fontColor=#5C5C5C;" vertex="1" parent="1">
          <mxGeometry x="300" y="380" width="30" height="20" as="geometry" />
        </mxCell>
        <mxCell id="kyES9LxYlZeH5sA6S6n9-102" value="1" style="text;html=1;align=center;verticalAlign=middle;resizable=0;points=[];autosize=1;strokeColor=none;fontColor=#5C5C5C;" vertex="1" parent="1">
          <mxGeometry x="145" y="380" width="20" height="20" as="geometry" />
        </mxCell>
        <mxCell id="kyES9LxYlZeH5sA6S6n9-103" value="1" style="text;html=1;align=center;verticalAlign=middle;resizable=0;points=[];autosize=1;strokeColor=none;fontColor=#5C5C5C;" vertex="1" parent="1">
          <mxGeometry x="470" y="380" width="20" height="20" as="geometry" />
        </mxCell>
        <mxCell id="kyES9LxYlZeH5sA6S6n9-105" value="" style="endArrow=none;html=1;fontColor=#5C5C5C;strokeColor=#006658;fillColor=#21C0A5;exitX=1;exitY=0.5;exitDx=0;exitDy=0;entryX=0;entryY=0.5;entryDx=0;entryDy=0;" edge="1" parent="1" source="kyES9LxYlZeH5sA6S6n9-3" target="kyES9LxYlZeH5sA6S6n9-8">
          <mxGeometry width="50" height="50" relative="1" as="geometry">
            <mxPoint x="160" y="450" as="sourcePoint" />
            <mxPoint x="210" y="400" as="targetPoint" />
          </mxGeometry>
        </mxCell>
        <mxCell id="kyES9LxYlZeH5sA6S6n9-108" value="" style="endArrow=none;html=1;fontColor=#5C5C5C;strokeColor=#006658;fillColor=#21C0A5;exitX=1;exitY=0.5;exitDx=0;exitDy=0;entryX=0;entryY=0.5;entryDx=0;entryDy=0;" edge="1" parent="1" target="kyES9LxYlZeH5sA6S6n9-2">
          <mxGeometry width="50" height="50" relative="1" as="geometry">
            <mxPoint x="285" y="404.88" as="sourcePoint" />
            <mxPoint x="320" y="405" as="targetPoint" />
          </mxGeometry>
        </mxCell>
        <mxCell id="kyES9LxYlZeH5sA6S6n9-109" value="" style="endArrow=none;html=1;fontColor=#5C5C5C;strokeColor=#006658;fillColor=#21C0A5;exitX=1;exitY=0.5;exitDx=0;exitDy=0;entryX=0;entryY=0.5;entryDx=0;entryDy=0;" edge="1" parent="1" source="kyES9LxYlZeH5sA6S6n9-2" target="kyES9LxYlZeH5sA6S6n9-4">
          <mxGeometry width="50" height="50" relative="1" as="geometry">
            <mxPoint x="500" y="450" as="sourcePoint" />
            <mxPoint x="550" y="400" as="targetPoint" />
          </mxGeometry>
        </mxCell>
        <mxCell id="kyES9LxYlZeH5sA6S6n9-110" value="" style="endArrow=none;html=1;fontColor=#5C5C5C;strokeColor=#006658;fillColor=#21C0A5;entryX=0;entryY=0.5;entryDx=0;entryDy=0;exitX=1;exitY=0.5;exitDx=0;exitDy=0;" edge="1" parent="1" source="kyES9LxYlZeH5sA6S6n9-4" target="kyES9LxYlZeH5sA6S6n9-1">
          <mxGeometry width="50" height="50" relative="1" as="geometry">
            <mxPoint x="615" y="415" as="sourcePoint" />
            <mxPoint x="665" y="365" as="targetPoint" />
          </mxGeometry>
        </mxCell>
        <mxCell id="kyES9LxYlZeH5sA6S6n9-150" value="Movie_used" style="rounded=0;whiteSpace=wrap;html=1;sketch=0;fontColor=#5C5C5C;strokeColor=#006658;fillColor=#21C0A5;" vertex="1" parent="1">
          <mxGeometry x="667" y="650" width="155" height="80" as="geometry" />
        </mxCell>
        <mxCell id="kyES9LxYlZeH5sA6S6n9-151" value="used" style="rhombus;whiteSpace=wrap;html=1;rounded=0;sketch=0;fontColor=#5C5C5C;strokeColor=#006658;fillColor=#21C0A5;" vertex="1" parent="1">
          <mxGeometry x="704.5" y="530" width="80" height="80" as="geometry" />
        </mxCell>
        <mxCell id="kyES9LxYlZeH5sA6S6n9-152" value="" style="endArrow=none;html=1;fontColor=#5C5C5C;strokeColor=#006658;fillColor=#21C0A5;exitX=0.5;exitY=0;exitDx=0;exitDy=0;" edge="1" parent="1" source="kyES9LxYlZeH5sA6S6n9-151">
          <mxGeometry width="50" height="50" relative="1" as="geometry">
            <mxPoint x="702" y="490" as="sourcePoint" />
            <mxPoint x="752" y="440" as="targetPoint" />
          </mxGeometry>
        </mxCell>
        <mxCell id="kyES9LxYlZeH5sA6S6n9-153" value="" style="endArrow=none;html=1;fontColor=#5C5C5C;strokeColor=#006658;fillColor=#21C0A5;exitX=0.5;exitY=0;exitDx=0;exitDy=0;" edge="1" parent="1" source="kyES9LxYlZeH5sA6S6n9-150">
          <mxGeometry width="50" height="50" relative="1" as="geometry">
            <mxPoint x="693.5" y="660" as="sourcePoint" />
            <mxPoint x="743.5" y="610" as="targetPoint" />
          </mxGeometry>
        </mxCell>
        <mxCell id="kyES9LxYlZeH5sA6S6n9-154" value="1" style="text;html=1;align=center;verticalAlign=middle;resizable=0;points=[];autosize=1;strokeColor=none;fontColor=#5C5C5C;" vertex="1" parent="1">
          <mxGeometry x="743.5" y="610" width="20" height="20" as="geometry" />
        </mxCell>
        <mxCell id="kyES9LxYlZeH5sA6S6n9-155" value="m" style="text;html=1;align=center;verticalAlign=middle;resizable=0;points=[];autosize=1;strokeColor=none;fontColor=#5C5C5C;" vertex="1" parent="1">
          <mxGeometry x="737" y="510" width="30" height="20" as="geometry" />
        </mxCell>
        <mxCell id="kyES9LxYlZeH5sA6S6n9-157" value="Movie_name" style="ellipse;whiteSpace=wrap;html=1;rounded=0;sketch=0;fontColor=#5C5C5C;strokeColor=#006658;fillColor=#21C0A5;" vertex="1" parent="1">
          <mxGeometry x="510" y="660" width="100" height="60" as="geometry" />
        </mxCell>
        <mxCell id="kyES9LxYlZeH5sA6S6n9-158" value="date_of_realese" style="ellipse;whiteSpace=wrap;html=1;rounded=0;sketch=0;fontColor=#5C5C5C;strokeColor=#006658;fillColor=#21C0A5;" vertex="1" parent="1">
          <mxGeometry x="530" y="750" width="100" height="60" as="geometry" />
        </mxCell>
        <mxCell id="kyES9LxYlZeH5sA6S6n9-159" value="Song_used" style="ellipse;whiteSpace=wrap;html=1;rounded=0;sketch=0;fontColor=#5C5C5C;strokeColor=#006658;fillColor=#21C0A5;" vertex="1" parent="1">
          <mxGeometry x="673.5" y="770" width="100" height="60" as="geometry" />
        </mxCell>
        <mxCell id="kyES9LxYlZeH5sA6S6n9-160" value="" style="endArrow=none;html=1;fontColor=#5C5C5C;strokeColor=#006658;fillColor=#21C0A5;entryX=0;entryY=0.5;entryDx=0;entryDy=0;" edge="1" parent="1" target="kyES9LxYlZeH5sA6S6n9-150">
          <mxGeometry width="50" height="50" relative="1" as="geometry">
            <mxPoint x="610" y="690" as="sourcePoint" />
            <mxPoint x="660" y="640" as="targetPoint" />
          </mxGeometry>
        </mxCell>
        <mxCell id="kyES9LxYlZeH5sA6S6n9-161" value="" style="endArrow=none;html=1;fontColor=#5C5C5C;strokeColor=#006658;fillColor=#21C0A5;exitX=0.5;exitY=0;exitDx=0;exitDy=0;" edge="1" parent="1" source="kyES9LxYlZeH5sA6S6n9-159">
          <mxGeometry width="50" height="50" relative="1" as="geometry">
            <mxPoint x="673.5" y="780" as="sourcePoint" />
            <mxPoint x="723.5" y="730" as="targetPoint" />
          </mxGeometry>
        </mxCell>
        <mxCell id="kyES9LxYlZeH5sA6S6n9-162" value="" style="endArrow=none;html=1;fontColor=#5C5C5C;strokeColor=#006658;fillColor=#21C0A5;entryX=0;entryY=1;entryDx=0;entryDy=0;" edge="1" parent="1" target="kyES9LxYlZeH5sA6S6n9-150">
          <mxGeometry width="50" height="50" relative="1" as="geometry">
            <mxPoint x="625" y="770" as="sourcePoint" />
            <mxPoint x="675" y="720" as="targetPoint" />
          </mxGeometry>
        </mxCell>
      </root>
    </mxGraphModel>
  </diagram>
</mxfile>
